<svg xmlns="http://www.w3.org/2000/svg" viewBox="0 0 54 54"><title>heart-open</title><g id="Layer_2" data-name="Layer 2"><g id="icons"><g id="icon-favorite-deselect"><g id="icon-favorite"><path d="M37.16,5a10.82,10.82,0,0,1,7.9,3.55,14,14,0,0,1,0,18.71L27,46.44,8.94,27.25a14,14,0,0,1,0-18.71A10.82,10.82,0,0,1,16.84,5a10.57,10.57,0,0,1,6.67,2.41L27,10.21l3.48-2.8A10.57,10.57,0,0,1,37.16,5m0-5A16.17,16.17,0,0,0,27,3.61,16.12,16.12,0,0,0,4.94,5.24a18.7,18.7,0,0,0,0,25.32L27,54,49.06,30.56a18.7,18.7,0,0,0,0-25.32A16.3,16.3,0,0,0,37.16,0Z"/></g></g></g></g></svg>