<?xml version="1.0" standalone="no"?>
<!DOCTYPE svg PUBLIC "-//W3C//DTD SVG 1.1//EN" "http://www.w3.org/Graphics/SVG/1.1/DTD/svg11.dtd" >
<svg xmlns="http://www.w3.org/2000/svg">
<metadata>Generated by IcoMoon</metadata>
<defs>
<font id="dcm-icons" horiz-adv-x="1024">
<font-face units-per-em="1024" ascent="960" descent="-64" />
<missing-glyph horiz-adv-x="1024" />
<glyph unicode="&#x20;" horiz-adv-x="512" d="" />
<glyph unicode="&#xe900;" glyph-name="add" d="M1024 495.407h-464.593v464.593h-94.815v-464.593h-464.593v-94.815h464.593v-464.593h94.815v464.593h464.593v94.815z" />
<glyph unicode="&#xe901;" glyph-name="arrow-right" d="M507.449 960l-63.336-62.957 408.083-404.48h-852.196v-89.126h852.196l-408.083-404.48 63.336-62.957 516.551 512-516.551 512z" />
<glyph unicode="&#xe902;" glyph-name="cancel" d="M1024 897.043l-62.957 62.957-449.043-449.043-449.043 449.043-62.957-62.957 449.043-449.043-449.043-449.043 62.957-62.957 449.043 449.043 449.043-449.043 62.957 62.957-449.043 449.043 449.043 449.043z" />
<glyph unicode="&#xe903;" glyph-name="checked" d="M1024 448v-512h-1024v1024h682.667v-94.815h-587.852v-834.37h834.37v417.185zM1020.018 817.588l-67.887 66.56-517.31-530.963-140.136 230.021-80.972-49.493 203.473-332.231z" />
<glyph unicode="&#xe904;" glyph-name="down" d="M512-64l-512 986.264 78.317 37.736 433.683-835.508 433.683 835.508 78.317-37.736-512-986.264z" />
<glyph unicode="&#xe905;" glyph-name="drop-down" d="M512 220.444l-512 373.001 50.062 82.11 461.938-336.593 461.938 336.593 50.062-82.11-512-373.001z" />
<glyph unicode="&#xe906;" glyph-name="edit" d="M1024-64h-1024v1024h512v-86.85h-425.15v-850.299h850.299v425.15h86.85zM1002.572 894.578l-61.25 61.44-624.83-624.83 61.44-61.44z" />
<glyph unicode="&#xe907;" glyph-name="greater-than" d="M1024 448l-986.264-512-37.736 78.317 835.508 433.683-835.508 433.683 37.736 78.317 986.264-512z" />
<glyph unicode="&#xe908;" glyph-name="heart-closed" d="M930.513 860.634c-56.090 61.21-136.394 99.447-225.629 99.447-73.388 0-140.736-25.862-193.427-68.969-51.603 43.107-118.951 68.969-192.339 68.969-89.235 0-169.539-38.236-225.423-99.219-58.244-63.168-93.83-147.578-93.83-240.299s35.587-177.131 93.847-240.316l418.29-444.247 418.513 444.492c58.037 62.94 93.624 147.35 93.624 240.071s-35.587 177.131-93.847 240.316z" />
<glyph unicode="&#xe909;" glyph-name="heart-open" d="M704.664 865.185c59.373-0.647 112.602-26.412 149.658-67.152 42.323-46.974 68.121-109.257 68.121-177.565s-25.798-130.591-68.183-177.637l-342.26-363.471-342.471 363.899c-42.173 46.807-67.972 109.090-67.972 177.399s25.798 130.591 68.183 177.637c37.021 40.597 90.25 66.296 149.49 66.89 48.323-0.229 92.473-17.447 126.924-45.969l65.846-52.827 65.991 53.096c34.164 28.292 78.389 45.518 126.633 45.701zM704.664 960c-73.291-0.113-140.531-25.921-193.218-68.895-51.574 43.060-118.881 68.887-192.22 68.887-89.193 0-169.464-38.2-225.344-99.132-58.242-63.166-93.829-147.575-93.829-240.297s35.587-177.131 93.847-240.316l418.1-444.247 418.323 444.492c58.037 62.94 93.624 147.35 93.624 240.071s-35.587 177.131-93.847 240.316c-56.114 60.611-136.286 98.705-225.361 99.121z" />
<glyph unicode="&#xe90a;" glyph-name="left-arrow" d="M516.551-64l63.336 62.957-408.083 404.48h852.196v89.126h-852.196l408.083 404.48-63.336 62.957-516.551-512 516.551-512z" />
<glyph unicode="&#xe90b;" glyph-name="less-than" d="M0 448l986.264 512 37.736-78.317-835.508-433.683 835.508-433.683-37.736-78.317-986.264 512z" />
<glyph unicode="&#xe90c;" glyph-name="notification-closed" d="M853.333 357.547v351.573c0 138.557-112.323 250.88-250.88 250.88h-180.907c-138.557 0-250.88-112.323-250.88-250.88v-351.573c-0.047-109.808-70.634-203.117-168.904-237.076l-1.763-13.804h341.333c0-94.257 76.41-170.667 170.667-170.667s170.667 76.41 170.667 170.667h341.333v13.274c-100.032 34.489-170.619 127.798-170.667 237.6z" />
<glyph unicode="&#xe90d;" glyph-name="notification-open" d="M602.453 865.185c86.149-0.108 155.957-69.916 156.065-156.055v-351.584c0.202-57.009 14.202-110.702 38.831-157.975l-209.498 1.909v-94.815c0-41.892-33.96-75.852-75.852-75.852s-75.852 33.96-75.852 75.852v94.815h-208.593c23.724 45.363 37.724 99.056 37.926 156.001v351.638c0.108 86.149 69.916 155.957 156.055 156.065h180.727zM602.264 960h-180.717c-138.557 0-250.88-112.323-250.88-250.88v-351.573c-0.047-109.808-70.634-203.117-168.904-237.076l-1.763-13.804h341.333c0-94.257 76.41-170.667 170.667-170.667s170.667 76.41 170.667 170.667h341.333v13.274c-100.032 34.489-170.619 127.798-170.667 237.6v351.579c0 138.557-112.323 250.88-250.88 250.88z" />
<glyph unicode="&#xe90e;" glyph-name="save" d="M372.053-64l-372.053 513.896 72.059 49.304 297.15-410.359 580.836 871.159 73.956-46.459-651.947-977.541z" />
<glyph unicode="&#xe90f;" glyph-name="trash-closed" d="M1024 865.185h-1024v94.815h1024zM1024 789.333h-1024l170.667-853.333h682.667zM594.11 30.815l43.046 644.741h75.852l-42.856-644.741zM353.849 30.815l-42.856 644.741h75.852l43.046-644.741z" />
<glyph unicode="&#xe910;" glyph-name="trash-open" d="M1024 865.185h-1024v94.815h1024zM908.326 694.519h-792.652l132.741-663.704h527.17l132.741 663.704zM1024 789.333l-170.667-853.333h-682.667l-170.667 853.333zM594.11 106.667l43.046 512h75.852l-42.856-512zM353.849 106.667l-42.856 512h75.852l43.046-512z" />
<glyph unicode="&#xe911;" glyph-name="unchecked" d="M929.185 865.185v-834.37h-834.37v834.37h834.37zM1024 960h-1024v-1024h1024v1024z" />
<glyph unicode="&#xe912;" glyph-name="up" d="M512 960l512-986.264-78.317-37.736-433.683 835.508-433.683-835.508-78.317 37.736 512 986.264z" />
<glyph unicode="&#xe913;" glyph-name="user-outlined" d="M834.37 220.444c52.365 0 94.815-42.45 94.815-94.815v-94.815h-834.37v94.815c0 52.365 42.45 94.815 94.815 94.815h644.741zM834.37 315.259h-644.741c-104.73 0-189.63-84.9-189.63-189.63v-189.63h1024v189.63c0 104.73-84.9 189.63-189.63 189.63zM512 865.185c99.493 0 180.148-80.655 180.148-180.148s-80.655-180.148-180.148-180.148c-99.493 0-180.148 80.655-180.148 180.148 0.108 99.45 80.699 180.040 180.138 180.148zM512 960c-151.858 0-274.963-123.105-274.963-274.963s123.105-274.963 274.963-274.963c151.858 0 274.963 123.105 274.963 274.963s-123.105 274.963-274.963 274.963z" />
<glyph unicode="&#xe914;" glyph-name="user" d="M1024-64h-1024v189.63c0 104.73 84.9 189.63 189.63 189.63h644.741c104.73 0 189.63-84.9 189.63-189.63zM512 960c-151.858 0-274.963-123.105-274.963-274.963s123.105-274.963 274.963-274.963c151.858 0 274.963 123.105 274.963 274.963s-123.105 274.963-274.963 274.963z" />
<glyph unicode="&#xe915;" glyph-name="duplicate" d="M682.667 618.667v341.333h-682.667v-682.667h341.333v-341.333h682.667v682.667zM170.667 353.185h-94.815v530.963h530.963v-530.963h-436.148zM948.148 11.852h-530.963v265.481h211.816l94.815-94.815h-135.964v-75.852h265.481v265.481h-75.852v-135.964l-94.815 94.815v211.816h265.481z" />
<glyph unicode="&#xe916;" glyph-name="calendar" d="M265.481 694.519h-265.481v265.481h265.481zM644.741 960h-265.481v-265.481h265.481zM1024 960h-265.481v-265.481h265.481zM265.481 580.741h-265.481v-265.481h265.481zM644.741 580.741h-265.481v-265.481h265.481zM1024 580.741h-265.481v-265.481h265.481zM265.481 201.481h-265.481v-265.481h265.481zM644.741 201.481h-265.481v-265.481h265.481zM1024 201.481h-265.481v-265.481h265.481z" />
</font>
</defs>
</svg>
